<svg viewBox="0 0 242.1 124" height="50">
  <g id="Layer_1">
  <title>Layer 1</title>
  <path stroke="#000" d="m29.99999,32.24385c0.81249,0.42019 0.93147,0.96345 1.21873,1.26057c0.28726,0.29712 0.64422,0.24614 1.21873,0.84038c0.57452,0.59424 0,0.84038 0,1.68076c0,0.42019 0,0.84038 0,0.84038c0,0.84038 0,1.68076 0,1.68076c0,0.84038 0,1.68076 0,1.68076c0,0.84038 0,1.26057 0,1.68076c0,0.42019 0.40624,1.26057 0.40624,1.68076c0,0.42019 0,1.26057 0,1.68076c0,0.42019 0,1.26057 0,1.68076c0,0.84038 0,1.68076 0,1.68076c0,0.84038 0,1.26057 0,1.68076c0,0.42019 0,1.26057 0,1.68076c0,0.42019 0,1.26057 0,1.68076c0,0.42019 0,1.26057 0,1.68076c0,0.42019 0,0.84038 0,1.68076c0,0.42019 0.40624,0.84038 1.21873,1.68076c0,0 0,0.42019 0,0.84038c0,0.42019 0.28726,0.96345 0,1.26057c-0.28726,0.29712 -0.40624,0.84038 -0.40624,1.26057c0,0.84038 0,1.26057 0,1.68076c0,0.84038 0.28726,1.38364 0,1.68076c-0.28726,0.29712 -0.40624,0.42019 -0.40624,1.26057c0,0.42019 0,0.84038 0,1.26057c0,0.84038 0.81249,0.84038 1.62498,1.26057c0,0 1.05046,0.59424 1.62498,0c0.28726,-0.29712 0.33356,-0.96589 1.62498,-1.68076c0.35818,-0.19827 0.81249,-0.42019 1.62498,-0.42019c0,0 0.03092,-0.25939 0.40624,-0.42019c1.06157,-0.45481 1.06327,-0.87237 1.21873,-1.26057c0.21986,-0.54901 0.48181,-1.13139 1.21873,-1.68076c0.46607,-0.34746 0.40624,-1.26057 0.81249,-1.26057c0.81249,0 1.38889,-0.176 2.03122,-0.84038c0.64233,-0.66438 0.74089,-1.0447 1.62498,-1.26057c0.39538,-0.09654 1.18526,-0.58275 1.62498,-1.68076c0.31093,-0.77641 0.81249,-1.26057 0.81249,-1.68076c0,-0.42019 1.05046,-0.66633 1.62498,-1.26057c0.28726,-0.29712 0.06067,-0.61947 0.40624,-0.84038c0.77272,-0.49396 0.43717,-1.09977 0.81249,-1.26057c0.53078,-0.22741 0.74117,-0.88151 1.21873,-1.68076c0.21358,-0.35744 0.81249,-1.26057 0.81249,-1.68076c0,0 0.37277,-0.16256 0.81249,-1.26057c0.15546,-0.38821 0.81249,-0.84038 0.81249,-1.68076c0,0 0.37277,-0.16256 0.81249,-1.26057c0.31093,-0.77641 -0.31093,-0.90435 0,-1.68076c0.43971,-1.09801 0.81249,-0.84038 0.81249,-0.84038c0,-0.84038 0,-1.26057 0,-1.68076c0,-0.42019 0,-0.84038 0,-1.26057c0,-0.42019 1.05046,-1.01443 1.62498,-0.42019c0.57452,0.59424 -0.28726,1.38364 0,1.68076c0.57452,0.59424 0.81249,0.84038 0.81249,1.26057c0,0.42019 0,0.84038 0,1.68076c0,0.42019 0,0.84038 0,1.68076c0,0.42019 0,1.68076 0.40624,2.10096c0.40624,0.42019 0.40624,1.26057 0.40624,1.68076c0,0 0.37277,0.16256 0.81249,1.26057c0.15546,0.38821 0,0.84038 0,1.26057c0,0.84038 0.33492,0.88151 0.81249,1.68076c0.42715,0.71487 0.18639,1.13176 0.40624,1.68076c0.31093,0.77641 0.18639,1.13176 0.40624,1.68076c0.31093,0.77641 -0.21358,1.32333 0,1.68076c0.47757,0.79925 0.81249,0.84038 0.81249,0.84038c0,0 0.18639,0.71157 0.40624,1.26057c0.15546,0.38821 0,1.26057 0,1.68076c0,0.42019 0,0.84038 0,1.68076c0,0.42019 0,0.84038 0,1.68076c0,0.42019 0.81249,0.42019 0.81249,0.42019c0,0.84038 0.25078,1.29256 0.40624,1.68076c0.43971,1.09801 0.81249,1.26057 1.21873,1.68076c0,0 0,0.42019 0,1.26057c0,0.42019 0.11899,0.54326 0.40624,0.84038c0.28726,0.29712 0.81249,0 1.62498,0c0.40624,0 1.24046,0.19308 2.03122,0c0.88409,-0.21587 1.21873,-0.42019 1.62498,-0.84038c0.81249,-0.84038 0.85225,-1.60699 1.62498,-2.10096c0.69115,-0.44181 1.24966,-0.67958 1.62498,-0.84038c1.06157,-0.45481 1.14713,-1.4649 2.03122,-1.68076c0.39538,-0.09654 0.87433,-0.51878 1.62498,-0.84038c1.06157,-0.45481 0.65702,-1.29256 0.81249,-1.68076c0.43972,-1.09801 1.62498,-0.84038 1.62498,-1.26057c0,-0.42019 -0.02091,-0.5457 0.40624,-1.26057c0.47757,-0.79925 1.00516,-0.90314 1.21873,-1.26057c0.47757,-0.79925 0.85225,-1.60699 1.62498,-2.10096c0.34557,-0.22091 1.18526,-1.42313 1.62498,-2.52115c0.46639,-1.16462 0.07556,-2.39196 0.81249,-2.94134c0.46607,-0.34746 0.84341,-1.09977 1.21873,-1.26057c1.06157,-0.45481 0.81249,-1.26057 0.81249,-1.68076c0,-0.42019 0.40624,-0.84038 0.40624,-1.26057c0,-0.42019 0.40624,-1.26057 0.40624,-1.68076c0,-0.84038 0.40624,-1.68076 0.40624,-2.10096c0,-0.42019 0.81249,-1.26057 0.81249,-1.68076c0,-0.42019 0,-0.84038 0,-1.26057c0,-0.42019 0,-0.42019 0,-1.26057c0,-0.84038 0.62582,-0.86286 0.81249,-1.68076c0.20871,-0.91444 0.40624,-0.84038 0.40624,-1.68076c0,-0.84038 -0.31093,-0.90435 0,-1.68076c0.21986,-0.54901 0.64422,-0.24614 1.21873,-0.84038c0.28726,-0.29712 0,-0.84038 0,-1.68076c0,0 0,-0.84038 0,-1.68076c0,0 0.15547,-0.87237 0,-1.26057c-0.21986,-0.54901 -0.40624,-1.26057 -0.40624,-1.68076c0,-0.42019 0.16827,-0.66633 -0.40624,-1.26057c-0.28726,-0.29712 -1.09419,-1.03317 -1.62498,-1.26057c-0.37532,-0.1608 -1.21873,0.42019 -1.21873,0.42019c-0.40624,0 -0.23797,1.08652 -0.81249,1.68076c-0.28726,0.29712 -1.21873,0.84038 -1.21873,1.68076c0,0.84038 0.28726,1.38364 0,1.68076c-0.28726,0.29712 -0.40624,0.84038 -0.40624,1.26057c0,0.42019 0.42715,0.96589 0,1.68076c-0.47757,0.79925 -1.01003,0.76632 -1.21873,1.68076c-0.09334,0.40895 -0.19754,0.76632 -0.40624,1.68076c-0.09334,0.40895 -0.50156,1.32454 -0.81249,2.10096c-0.21986,0.54901 -1.21873,1.68076 -1.21873,1.68076c0,0.84038 0,1.26057 0,1.68076c0,0.84038 0.06015,1.35653 -0.40624,2.52115c-0.21986,0.54901 0.16827,1.08652 -0.40624,1.68076c-0.57452,0.59424 -0.59892,0.48295 -0.81249,0.84038c-0.47757,0.79925 -0.52523,1.38364 -0.81249,1.68076c-0.28726,0.29712 -0.93147,0.12307 -1.21873,0.42019c-0.28726,0.29712 0.28726,0.96345 0,1.26057c-0.28726,0.29712 -0.40624,0.42019 -0.40624,0.42019c0,0.42019 -0.23797,0.66633 -0.81249,1.26057c-0.28726,0.29712 -0.11899,0.54326 -0.40624,0.84038c-0.28726,0.29712 -0.40624,0.84038 -0.40624,0.84038c-0.40624,0.42019 0.16827,1.08652 -0.40624,1.68076c-0.57452,0.59424 -0.93147,0.12307 -1.21873,0.42019c-0.28726,0.29712 -0.01087,1.16403 -0.40624,1.26057c-0.88409,0.21587 -0.5764,1.01638 -1.21873,1.68076c-0.64233,0.66438 -0.69635,0.92933 -1.62498,2.10096c-0.72848,0.9191 -0.98265,1.01638 -1.62498,1.68076c-0.64233,0.66438 -0.52523,1.38364 -0.81249,1.68076c-0.57452,0.59424 -0.65702,0.8084 -0.81249,0.42019c-0.21986,-0.54901 -0.40624,-0.84038 -0.40624,-1.26057c0,-0.84038 0,-1.26057 0,-1.68076c0,-0.84038 0,-1.26057 0,-2.10096c0,-0.84038 -0.40624,-1.68076 -0.40624,-2.10096c0,-0.42019 -0.11899,-0.54327 -0.40624,-0.84038c-0.57452,-0.59424 0,-1.26057 0,-1.68076c0,-0.84038 0,-1.26057 0,-1.26057c0,-0.84038 -0.40624,-1.26057 -0.40624,-1.68076c0,-0.84038 -0.33492,-0.88151 -0.81249,-1.68076c-0.21358,-0.35744 -0.81249,-0.84038 -0.81249,-1.68076c0,-0.84038 0,-1.68076 0,-2.10095c0,-0.42019 0,-1.26057 0,-1.68076c0,-0.42019 0,-1.26057 0,-1.26057c0,-0.84038 0,-1.68076 0,-1.68076c0,-0.84038 -0.81249,-1.26057 -0.81249,-1.68076c0,-0.42019 0.31093,-0.90435 0,-1.68076c-0.21986,-0.54901 -0.60378,-0.76632 -0.81249,-1.68076c-0.09334,-0.40895 0,-0.84038 0,-1.68076c0,0 -1.01003,-0.76632 -1.21873,-1.68076c-0.09334,-0.40895 0.16827,-1.08652 -0.40624,-1.68076c-0.57452,-0.59424 -1.62498,-0.42019 -2.03122,-0.42019c-0.40624,0 -0.81249,-0.42019 -1.21873,-0.42019c0,0 -0.81249,0 -1.62498,0c0,0 -0.81249,0 -1.21873,0c-0.40624,0 -0.40624,0 -0.81249,0c-0.81249,0 -1.15891,0.07273 -1.62498,0.42019c-0.73693,0.54938 -0.99887,1.13176 -1.21873,1.68076c-0.15546,0.38821 0.02091,0.5457 -0.40624,1.26057c-0.47757,0.79925 -1.59151,0.58275 -2.03122,1.68076c-0.15546,0.38821 0.16827,1.08652 -0.40624,1.68076c-0.28726,0.29712 -0.40624,0.42019 -0.40624,0.84038c0,0 -0.11899,0.12307 -0.40624,0.42019c-0.28726,0.29712 -0.11899,0.96345 -0.40624,1.26057c-0.57452,0.59424 -0.81249,0.42019 -0.81249,0.42019c0,0.84038 -0.02174,1.06749 -0.81249,1.26057c-0.88409,0.21587 -0.81249,1.26057 -0.81249,1.68076c0,0.42019 0.16827,0.66633 -0.40624,1.26057c-0.57452,0.59424 -0.90781,0.48416 -1.21873,1.26057c-0.43971,1.09801 -0.90781,0.90435 -1.21873,1.68076c-0.65957,1.64702 -1.59151,1.42313 -2.03122,2.52115c-0.15546,0.38821 -1.05046,0.24614 -1.62498,0.84038c-0.57452,0.59424 0.28726,0.96345 0,1.26057c-0.57452,0.59424 -0.87316,0.19928 -1.21873,0.42019c-0.77272,0.49396 -0.52523,0.54326 -0.81249,0.84038c-0.57452,0.59424 0.16827,1.08652 -0.40624,1.68076c-0.57452,0.59424 -0.62582,0.02248 -0.81249,0.84038c-0.20871,0.91444 -0.90781,0.90435 -1.21873,1.68076c-0.21986,0.54901 0.0697,2.02886 1.21873,0.84038c0.57452,-0.59424 0,-1.26057 0,-1.68076c0,-0.42019 0,-0.84038 0,-1.68076c0,0 0,-0.42019 0,-0.84038c0,-0.42019 0,-0.84038 0,-1.26057c0,-0.84038 -0.40624,-0.84038 -0.40624,-1.26057c0,-0.42019 0,-0.84038 0,-1.68076c0,-0.42019 0.57452,-1.08652 0,-1.68076c-0.28726,-0.29712 -0.40624,-0.42019 -0.40624,-1.26057c0,-0.42019 0,-0.84038 0,-1.26057c0,-0.84038 0,-1.26057 0,-1.68076c0,-0.84038 0,-1.26057 0,-1.68076c0,-0.84038 0,-0.84038 0,-1.68076c0,-0.42019 0,-0.84038 0,-1.68076c0,-0.42019 0,-0.84038 0,-1.26057c0,-0.84038 0.15546,-1.29256 0,-1.68076c-0.43972,-1.09801 -0.81249,-1.26057 -0.81249,-1.26057c0,-0.84038 0,-1.26057 0,-1.68076c0,-0.84038 0,-1.26057 0,-1.68076c0,-0.42019 0,-1.26057 0,-1.68076c0,-0.42019 0,-1.26057 0,-1.68076c0,-0.42019 0.05983,-1.33331 -0.40624,-1.68076c-0.73692,-0.54938 -1.21873,-1.26057 -1.62498,-1.26057c-0.81249,0 -1.21873,0 -1.62498,0c-0.40624,0 -1.21873,0 -1.21873,0.42019c0,0.42019 0,0.84038 0,1.26057c0,0.84038 0,1.26057 0,1.68076c0,0.84038 0,1.26057 0,1.68076c0,0.84038 0,1.26057 0,1.68076l0,0.42019" id="svg_10" fill="none"/>
 </g>
</svg>